<?xml version="1.0" encoding="UTF-8" standalone="no"?>
<!DOCTYPE svg PUBLIC "-//W3C//DTD SVG 1.1//EN"
 "http://www.w3.org/Graphics/SVG/1.1/DTD/svg11.dtd">
<!-- Generated by graphviz version 2.43.0 (0)
 -->
<!-- Title: Ogre::ScriptLoader Pages: 1 -->
<svg width="721pt" height="468pt"
 viewBox="0.00 0.00 721.00 468.00" xmlns="http://www.w3.org/2000/svg" xmlns:xlink="http://www.w3.org/1999/xlink">
<g id="graph0" class="graph" transform="scale(1 1) rotate(0) translate(4 464)">
<title>Ogre::ScriptLoader</title>
<!-- Node1 -->
<g id="node1" class="node">
<title>Node1</title>
<g id="a_node1"><a xlink:title="Abstract class defining the interface used by classes which wish to perform script loading to define ...">
<polygon fill="#bfbfbf" stroke="black" points="0,-345.5 0,-364.5 107,-364.5 107,-345.5 0,-345.5"/>
<text text-anchor="middle" x="53.5" y="-352.5" font-family="Helvetica,sans-Serif" font-size="10.00">Ogre::ScriptLoader</text>
</a>
</g>
</g>
<!-- Node2 -->
<g id="node2" class="node">
<title>Node2</title>
<g id="a_node2"><a xlink:href="class_ogre_1_1_cg_fx_script_loader.html" target="_top" xlink:title="Manages Overlay objects, parsing them from .overlay files and storing a lookup library of them.">
<polygon fill="none" stroke="black" points="158.5,-440.5 158.5,-459.5 289.5,-459.5 289.5,-440.5 158.5,-440.5"/>
<text text-anchor="middle" x="224" y="-447.5" font-family="Helvetica,sans-Serif" font-size="10.00">Ogre::CgFxScriptLoader</text>
</a>
</g>
</g>
<!-- Node1&#45;&gt;Node2 -->
<g id="edge1" class="edge">
<title>Node1&#45;&gt;Node2</title>
<path fill="none" stroke="midnightblue" d="M69.84,-372.33C86.24,-389.77 113.85,-416.14 143,-431 150.63,-434.89 159.08,-438 167.54,-440.48"/>
<polygon fill="midnightblue" stroke="midnightblue" points="72.07,-369.58 62.74,-364.58 66.91,-374.31 72.07,-369.58"/>
</g>
<!-- Node3 -->
<g id="node3" class="node">
<title>Node3</title>
<g id="a_node3"><a xlink:href="class_ogre_1_1_overlay_manager.html" target="_top" xlink:title="Manages Overlay objects, parsing them from .overlay files and storing a lookup library of them.">
<polygon fill="none" stroke="black" points="160.5,-402.5 160.5,-421.5 287.5,-421.5 287.5,-402.5 160.5,-402.5"/>
<text text-anchor="middle" x="224" y="-409.5" font-family="Helvetica,sans-Serif" font-size="10.00">Ogre::OverlayManager</text>
</a>
</g>
</g>
<!-- Node1&#45;&gt;Node3 -->
<g id="edge2" class="edge">
<title>Node1&#45;&gt;Node3</title>
<path fill="none" stroke="midnightblue" d="M83.55,-368.98C100.59,-376.8 122.7,-386.29 143,-393 153.84,-396.59 165.72,-399.79 176.93,-402.49"/>
<polygon fill="midnightblue" stroke="midnightblue" points="84.7,-365.65 74.15,-364.6 81.74,-372 84.7,-365.65"/>
</g>
<!-- Node4 -->
<g id="node4" class="node">
<title>Node4</title>
<g id="a_node4"><a xlink:href="class_ogre_1_1_particle_system_manager.html" target="_top" xlink:title="Manages particle systems, particle system scripts (templates) and the available emitter &amp; affector fa...">
<polygon fill="none" stroke="black" points="143,-364.5 143,-383.5 305,-383.5 305,-364.5 143,-364.5"/>
<text text-anchor="middle" x="224" y="-371.5" font-family="Helvetica,sans-Serif" font-size="10.00">Ogre::ParticleSystemManager</text>
</a>
</g>
</g>
<!-- Node1&#45;&gt;Node4 -->
<g id="edge3" class="edge">
<title>Node1&#45;&gt;Node4</title>
<path fill="none" stroke="midnightblue" d="M117.34,-362.09C125.67,-363.03 134.3,-364 142.87,-364.96"/>
<polygon fill="midnightblue" stroke="midnightblue" points="117.68,-358.6 107.35,-360.96 116.9,-365.56 117.68,-358.6"/>
</g>
<!-- Node5 -->
<g id="node5" class="node">
<title>Node5</title>
<g id="a_node5"><a xlink:href="class_ogre_1_1_quake3_shader_manager.html" target="_top" xlink:title="Class for managing Quake3 custom shaders.">
<polygon fill="none" stroke="black" points="144.5,-326.5 144.5,-345.5 303.5,-345.5 303.5,-326.5 144.5,-326.5"/>
<text text-anchor="middle" x="224" y="-333.5" font-family="Helvetica,sans-Serif" font-size="10.00">Ogre::Quake3ShaderManager</text>
</a>
</g>
</g>
<!-- Node1&#45;&gt;Node5 -->
<g id="edge4" class="edge">
<title>Node1&#45;&gt;Node5</title>
<path fill="none" stroke="midnightblue" d="M117.49,-347.9C126.27,-346.91 135.39,-345.88 144.42,-344.86"/>
<polygon fill="midnightblue" stroke="midnightblue" points="116.9,-344.44 107.35,-349.04 117.68,-351.4 116.9,-344.44"/>
</g>
<!-- Node6 -->
<g id="node6" class="node">
<title>Node6</title>
<g id="a_node6"><a xlink:href="class_ogre_1_1_resource_manager.html" target="_top" xlink:title="Defines a generic resource handler.">
<polygon fill="none" stroke="black" points="157,-288.5 157,-307.5 291,-307.5 291,-288.5 157,-288.5"/>
<text text-anchor="middle" x="224" y="-295.5" font-family="Helvetica,sans-Serif" font-size="10.00">Ogre::ResourceManager</text>
</a>
</g>
</g>
<!-- Node1&#45;&gt;Node6 -->
<g id="edge5" class="edge">
<title>Node1&#45;&gt;Node6</title>
<path fill="none" stroke="midnightblue" d="M83.55,-341.02C100.59,-333.2 122.7,-323.71 143,-317 153.84,-313.41 165.72,-310.21 176.93,-307.51"/>
<polygon fill="midnightblue" stroke="midnightblue" points="81.74,-338 74.15,-345.4 84.7,-344.35 81.74,-338"/>
</g>
<!-- Node26 -->
<g id="node26" class="node">
<title>Node26</title>
<g id="a_node26"><a xlink:href="class_ogre_1_1_script_compiler_manager.html" target="_top" xlink:title="Manages threaded compilation of scripts.">
<polygon fill="none" stroke="black" points="143.5,-250.5 143.5,-269.5 304.5,-269.5 304.5,-250.5 143.5,-250.5"/>
<text text-anchor="middle" x="224" y="-257.5" font-family="Helvetica,sans-Serif" font-size="10.00">Ogre::ScriptCompilerManager</text>
</a>
</g>
</g>
<!-- Node1&#45;&gt;Node26 -->
<g id="edge25" class="edge">
<title>Node1&#45;&gt;Node26</title>
<path fill="none" stroke="midnightblue" d="M69.84,-337.67C86.24,-320.23 113.85,-293.86 143,-279 150.63,-275.11 159.08,-272 167.54,-269.52"/>
<polygon fill="midnightblue" stroke="midnightblue" points="66.91,-335.69 62.74,-345.42 72.07,-340.42 66.91,-335.69"/>
</g>
<!-- Node7 -->
<g id="node7" class="node">
<title>Node7</title>
<g id="a_node7"><a xlink:href="class_ogre_1_1_compositor_manager.html" target="_top" xlink:title="Class for managing Compositor settings for Ogre.">
<polygon fill="none" stroke="black" points="346,-430.5 346,-449.5 491,-449.5 491,-430.5 346,-430.5"/>
<text text-anchor="middle" x="418.5" y="-437.5" font-family="Helvetica,sans-Serif" font-size="10.00">Ogre::CompositorManager</text>
</a>
</g>
</g>
<!-- Node6&#45;&gt;Node7 -->
<g id="edge6" class="edge">
<title>Node6&#45;&gt;Node7</title>
<path fill="none" stroke="midnightblue" d="M299.55,-312.69C301.46,-314.01 303.28,-315.44 305,-317 341.27,-349.81 304.9,-388 341,-421 345.24,-424.88 350.15,-427.99 355.4,-430.5"/>
<polygon fill="midnightblue" stroke="midnightblue" points="301.12,-309.55 290.71,-307.57 297.61,-315.61 301.12,-309.55"/>
</g>
<!-- Node8 -->
<g id="node8" class="node">
<title>Node8</title>
<g id="a_node8"><a xlink:href="class_ogre_1_1_font_manager.html" target="_top" xlink:title="Manages Font resources, parsing .fontdef files and generally organising them.">
<polygon fill="none" stroke="black" points="363.5,-392.5 363.5,-411.5 473.5,-411.5 473.5,-392.5 363.5,-392.5"/>
<text text-anchor="middle" x="418.5" y="-399.5" font-family="Helvetica,sans-Serif" font-size="10.00">Ogre::FontManager</text>
</a>
</g>
</g>
<!-- Node6&#45;&gt;Node8 -->
<g id="edge7" class="edge">
<title>Node6&#45;&gt;Node8</title>
<path fill="none" stroke="midnightblue" d="M297.59,-312.12C300.18,-313.59 302.66,-315.21 305,-317 331.55,-337.28 314.55,-362.58 341,-383 347.61,-388.1 355.41,-391.85 363.46,-394.6"/>
<polygon fill="midnightblue" stroke="midnightblue" points="298.98,-308.9 288.45,-307.66 295.91,-315.19 298.98,-308.9"/>
</g>
<!-- Node9 -->
<g id="node9" class="node">
<title>Node9</title>
<g id="a_node9"><a xlink:href="class_ogre_1_1_gpu_program_manager.html" target="_top" xlink:title=" ">
<polygon fill="none" stroke="black" points="344,-354.5 344,-373.5 493,-373.5 493,-354.5 344,-354.5"/>
<text text-anchor="middle" x="418.5" y="-361.5" font-family="Helvetica,sans-Serif" font-size="10.00">Ogre::GpuProgramManager</text>
</a>
</g>
</g>
<!-- Node6&#45;&gt;Node9 -->
<g id="edge8" class="edge">
<title>Node6&#45;&gt;Node9</title>
<path fill="none" stroke="midnightblue" d="M289.28,-310.66C294.7,-312.51 300.01,-314.61 305,-317 323.28,-325.76 322.77,-336.14 341,-345 348.88,-348.83 357.6,-351.93 366.25,-354.43"/>
<polygon fill="midnightblue" stroke="midnightblue" points="290.03,-307.23 279.45,-307.6 287.96,-313.91 290.03,-307.23"/>
</g>
<!-- Node12 -->
<g id="node12" class="node">
<title>Node12</title>
<g id="a_node12"><a xlink:href="class_ogre_1_1_high_level_gpu_program_manager.html" target="_top" xlink:title="This ResourceManager manages high&#45;level vertex and fragment programs.">
<polygon fill="none" stroke="black" points="341,-305 341,-335 496,-335 496,-305 341,-305"/>
<text text-anchor="start" x="349" y="-323" font-family="Helvetica,sans-Serif" font-size="10.00">Ogre::HighLevelGpuProgram</text>
<text text-anchor="middle" x="418.5" y="-312" font-family="Helvetica,sans-Serif" font-size="10.00">Manager</text>
</a>
</g>
</g>
<!-- Node6&#45;&gt;Node12 -->
<g id="edge11" class="edge">
<title>Node6&#45;&gt;Node12</title>
<path fill="none" stroke="midnightblue" d="M301.51,-306.74C314.46,-308.22 327.91,-309.76 340.87,-311.24"/>
<polygon fill="midnightblue" stroke="midnightblue" points="301.58,-303.23 291.25,-305.57 300.79,-310.18 301.58,-303.23"/>
</g>
<!-- Node13 -->
<g id="node13" class="node">
<title>Node13</title>
<g id="a_node13"><a xlink:href="class_ogre_1_1_material_manager.html" target="_top" xlink:title="Class for managing Material settings for Ogre.">
<polygon fill="none" stroke="black" points="354,-266.5 354,-285.5 483,-285.5 483,-266.5 354,-266.5"/>
<text text-anchor="middle" x="418.5" y="-273.5" font-family="Helvetica,sans-Serif" font-size="10.00">Ogre::MaterialManager</text>
</a>
</g>
</g>
<!-- Node6&#45;&gt;Node13 -->
<g id="edge12" class="edge">
<title>Node6&#45;&gt;Node13</title>
<path fill="none" stroke="midnightblue" d="M301.34,-289.27C318.7,-287.29 336.96,-285.2 353.73,-283.29"/>
<polygon fill="midnightblue" stroke="midnightblue" points="300.79,-285.82 291.25,-290.43 301.58,-292.77 300.79,-285.82"/>
</g>
<!-- Node14 -->
<g id="node14" class="node">
<title>Node14</title>
<g id="a_node14"><a xlink:href="class_ogre_1_1_mesh_manager.html" target="_top" xlink:title="Handles the management of mesh resources.">
<polygon fill="none" stroke="black" points="361,-228.5 361,-247.5 476,-247.5 476,-228.5 361,-228.5"/>
<text text-anchor="middle" x="418.5" y="-235.5" font-family="Helvetica,sans-Serif" font-size="10.00">Ogre::MeshManager</text>
</a>
</g>
</g>
<!-- Node6&#45;&gt;Node14 -->
<g id="edge13" class="edge">
<title>Node6&#45;&gt;Node14</title>
<path fill="none" stroke="midnightblue" d="M285.77,-285.72C292.36,-283.75 298.88,-281.52 305,-279 322.34,-271.86 323.7,-264.23 341,-257 349.96,-253.25 359.84,-250.12 369.43,-247.55"/>
<polygon fill="midnightblue" stroke="midnightblue" points="284.81,-282.35 276.12,-288.4 286.69,-289.09 284.81,-282.35"/>
</g>
<!-- Node15 -->
<g id="node15" class="node">
<title>Node15</title>
<g id="a_node15"><a xlink:href="class_ogre_1_1_skeleton_manager.html" target="_top" xlink:title="Handles the management of skeleton resources.">
<polygon fill="none" stroke="black" points="353,-190.5 353,-209.5 484,-209.5 484,-190.5 353,-190.5"/>
<text text-anchor="middle" x="418.5" y="-197.5" font-family="Helvetica,sans-Serif" font-size="10.00">Ogre::SkeletonManager</text>
</a>
</g>
</g>
<!-- Node6&#45;&gt;Node15 -->
<g id="edge14" class="edge">
<title>Node6&#45;&gt;Node15</title>
<path fill="none" stroke="midnightblue" d="M296.59,-284.25C299.53,-282.68 302.35,-280.94 305,-279 330.1,-260.63 316,-237.49 341,-219 346.28,-215.09 352.27,-211.98 358.52,-209.51"/>
<polygon fill="midnightblue" stroke="midnightblue" points="295.1,-281.09 287.48,-288.45 298.03,-287.44 295.1,-281.09"/>
</g>
<!-- Node16 -->
<g id="node16" class="node">
<title>Node16</title>
<g id="a_node16"><a xlink:href="class_ogre_1_1_texture_manager.html" target="_top" xlink:title="Class for loading &amp; managing textures.">
<polygon fill="none" stroke="black" points="356,-152.5 356,-171.5 481,-171.5 481,-152.5 356,-152.5"/>
<text text-anchor="middle" x="418.5" y="-159.5" font-family="Helvetica,sans-Serif" font-size="10.00">Ogre::TextureManager</text>
</a>
</g>
</g>
<!-- Node6&#45;&gt;Node16 -->
<g id="edge15" class="edge">
<title>Node6&#45;&gt;Node16</title>
<path fill="none" stroke="midnightblue" d="M299.51,-283.27C301.43,-281.96 303.27,-280.54 305,-279 339.7,-248.2 306.46,-211.98 341,-181 345.38,-177.07 350.45,-173.93 355.85,-171.41"/>
<polygon fill="midnightblue" stroke="midnightblue" points="297.58,-280.34 290.63,-288.34 301.05,-286.42 297.58,-280.34"/>
</g>
<!-- Node10 -->
<g id="node10" class="node">
<title>Node10</title>
<g id="a_node10"><a xlink:href="class_ogre_1_1_d3_d9_gpu_program_manager.html" target="_top" xlink:title=" ">
<polygon fill="none" stroke="black" points="534.5,-386.5 534.5,-405.5 710.5,-405.5 710.5,-386.5 534.5,-386.5"/>
<text text-anchor="middle" x="622.5" y="-393.5" font-family="Helvetica,sans-Serif" font-size="10.00">Ogre::D3D9GpuProgramManager</text>
</a>
</g>
</g>
<!-- Node9&#45;&gt;Node10 -->
<g id="edge9" class="edge">
<title>Node9&#45;&gt;Node10</title>
<path fill="none" stroke="midnightblue" d="M489.74,-375.13C513.07,-378.82 538.82,-382.9 561.32,-386.47"/>
<polygon fill="midnightblue" stroke="midnightblue" points="489.98,-371.62 479.56,-373.51 488.89,-378.54 489.98,-371.62"/>
</g>
<!-- Node11 -->
<g id="node11" class="node">
<title>Node11</title>
<g id="a_node11"><a xlink:href="class_ogre_1_1_g_l_gpu_program_manager.html" target="_top" xlink:title=" ">
<polygon fill="none" stroke="black" points="541.5,-348.5 541.5,-367.5 703.5,-367.5 703.5,-348.5 541.5,-348.5"/>
<text text-anchor="middle" x="622.5" y="-355.5" font-family="Helvetica,sans-Serif" font-size="10.00">Ogre::GLGpuProgramManager</text>
</a>
</g>
</g>
<!-- Node9&#45;&gt;Node11 -->
<g id="edge10" class="edge">
<title>Node9&#45;&gt;Node11</title>
<path fill="none" stroke="midnightblue" d="M503.31,-361.51C515.92,-361.14 528.91,-360.75 541.45,-360.38"/>
<polygon fill="midnightblue" stroke="midnightblue" points="503.18,-358.01 493.28,-361.81 503.38,-365.01 503.18,-358.01"/>
</g>
<!-- Node17 -->
<g id="node17" class="node">
<title>Node17</title>
<g id="a_node17"><a xlink:href="class_ogre_1_1_d3_d11_texture_manager.html" target="_top" xlink:title=" ">
<polygon fill="none" stroke="black" points="543.5,-304.5 543.5,-323.5 701.5,-323.5 701.5,-304.5 543.5,-304.5"/>
<text text-anchor="middle" x="622.5" y="-311.5" font-family="Helvetica,sans-Serif" font-size="10.00">Ogre::D3D11TextureManager</text>
</a>
</g>
</g>
<!-- Node16&#45;&gt;Node17 -->
<g id="edge16" class="edge">
<title>Node16&#45;&gt;Node17</title>
<path fill="none" stroke="midnightblue" d="M490.44,-176.48C492.4,-177.86 494.26,-179.36 496,-181 534.73,-217.38 492.66,-259.29 532,-295 536.12,-298.74 540.78,-301.81 545.77,-304.32"/>
<polygon fill="midnightblue" stroke="midnightblue" points="491.75,-173.2 481.34,-171.2 488.24,-179.25 491.75,-173.2"/>
</g>
<!-- Node18 -->
<g id="node18" class="node">
<title>Node18</title>
<g id="a_node18"><a xlink:href="class_ogre_1_1_d3_d9_texture_manager.html" target="_top" xlink:title=" ">
<polygon fill="none" stroke="black" points="546.5,-266.5 546.5,-285.5 698.5,-285.5 698.5,-266.5 546.5,-266.5"/>
<text text-anchor="middle" x="622.5" y="-273.5" font-family="Helvetica,sans-Serif" font-size="10.00">Ogre::D3D9TextureManager</text>
</a>
</g>
</g>
<!-- Node16&#45;&gt;Node18 -->
<g id="edge17" class="edge">
<title>Node16&#45;&gt;Node18</title>
<path fill="none" stroke="midnightblue" d="M489.54,-176.41C491.8,-177.81 493.96,-179.33 496,-181 524.92,-204.67 502.68,-233.83 532,-257 536.86,-260.84 542.32,-263.95 548.08,-266.47"/>
<polygon fill="midnightblue" stroke="midnightblue" points="490.9,-173.18 480.41,-171.66 487.67,-179.38 490.9,-173.18"/>
</g>
<!-- Node19 -->
<g id="node19" class="node">
<title>Node19</title>
<g id="a_node19"><a xlink:href="class_ogre_1_1_default_texture_manager.html" target="_top" xlink:title="Specialisation of TextureManager for offline processing. Cannot be used with an active RenderSystem.">
<polygon fill="none" stroke="black" points="542,-228.5 542,-247.5 703,-247.5 703,-228.5 542,-228.5"/>
<text text-anchor="middle" x="622.5" y="-235.5" font-family="Helvetica,sans-Serif" font-size="10.00">Ogre::DefaultTextureManager</text>
</a>
</g>
</g>
<!-- Node16&#45;&gt;Node19 -->
<g id="edge18" class="edge">
<title>Node16&#45;&gt;Node19</title>
<path fill="none" stroke="midnightblue" d="M484.22,-175.2C488.31,-176.9 492.28,-178.83 496,-181 516.1,-192.72 511.71,-207.63 532,-219 538.93,-222.88 546.56,-225.97 554.37,-228.43"/>
<polygon fill="midnightblue" stroke="midnightblue" points="485.09,-171.79 474.5,-171.6 482.66,-178.35 485.09,-171.79"/>
</g>
<!-- Node20 -->
<g id="node20" class="node">
<title>Node20</title>
<g id="a_node20"><a xlink:href="class_ogre_1_1_g_l3_plus_texture_manager.html" target="_top" xlink:title="GL3Plus&#45;specific implementation of a TextureManager.">
<polygon fill="none" stroke="black" points="540.5,-190.5 540.5,-209.5 704.5,-209.5 704.5,-190.5 540.5,-190.5"/>
<text text-anchor="middle" x="622.5" y="-197.5" font-family="Helvetica,sans-Serif" font-size="10.00">Ogre::GL3PlusTextureManager</text>
</a>
</g>
</g>
<!-- Node16&#45;&gt;Node20 -->
<g id="edge19" class="edge">
<title>Node16&#45;&gt;Node20</title>
<path fill="none" stroke="midnightblue" d="M480.2,-173.42C509.1,-178.86 543.27,-185.28 570.77,-190.46"/>
<polygon fill="midnightblue" stroke="midnightblue" points="480.69,-169.95 470.21,-171.54 479.39,-176.83 480.69,-169.95"/>
</g>
<!-- Node21 -->
<g id="node21" class="node">
<title>Node21</title>
<g id="a_node21"><a xlink:href="class_ogre_1_1_g_l_e_s2_texture_manager.html" target="_top" xlink:title="GL ES&#45;specific implementation of a TextureManager.">
<polygon fill="none" stroke="black" points="545,-152.5 545,-171.5 700,-171.5 700,-152.5 545,-152.5"/>
<text text-anchor="middle" x="622.5" y="-159.5" font-family="Helvetica,sans-Serif" font-size="10.00">Ogre::GLES2TextureManager</text>
</a>
</g>
</g>
<!-- Node16&#45;&gt;Node21 -->
<g id="edge20" class="edge">
<title>Node16&#45;&gt;Node21</title>
<path fill="none" stroke="midnightblue" d="M491.26,-162C508.63,-162 527.25,-162 544.83,-162"/>
<polygon fill="midnightblue" stroke="midnightblue" points="491.2,-158.5 481.2,-162 491.2,-165.5 491.2,-158.5"/>
</g>
<!-- Node22 -->
<g id="node22" class="node">
<title>Node22</title>
<g id="a_node22"><a xlink:href="class_ogre_1_1_g_l_texture_manager.html" target="_top" xlink:title="GL&#45;specific implementation of a TextureManager.">
<polygon fill="none" stroke="black" points="554,-114.5 554,-133.5 691,-133.5 691,-114.5 554,-114.5"/>
<text text-anchor="middle" x="622.5" y="-121.5" font-family="Helvetica,sans-Serif" font-size="10.00">Ogre::GLTextureManager</text>
</a>
</g>
</g>
<!-- Node16&#45;&gt;Node22 -->
<g id="edge21" class="edge">
<title>Node16&#45;&gt;Node22</title>
<path fill="none" stroke="midnightblue" d="M480.2,-150.58C509.1,-145.14 543.27,-138.72 570.77,-133.54"/>
<polygon fill="midnightblue" stroke="midnightblue" points="479.39,-147.17 470.21,-152.46 480.69,-154.05 479.39,-147.17"/>
</g>
<!-- Node23 -->
<g id="node23" class="node">
<title>Node23</title>
<g id="a_node23"><a xlink:href="class_ogre_1_1_g_l_texture_manager_common.html" target="_top" xlink:title=" ">
<polygon fill="none" stroke="black" points="532,-76.5 532,-95.5 713,-95.5 713,-76.5 532,-76.5"/>
<text text-anchor="middle" x="622.5" y="-83.5" font-family="Helvetica,sans-Serif" font-size="10.00">Ogre::GLTextureManagerCommon</text>
</a>
</g>
</g>
<!-- Node16&#45;&gt;Node23 -->
<g id="edge22" class="edge">
<title>Node16&#45;&gt;Node23</title>
<path fill="none" stroke="midnightblue" d="M444.08,-147.19C466.34,-134.36 500.38,-116.15 532,-105 542.64,-101.25 554.26,-98.12 565.5,-95.55"/>
<polygon fill="midnightblue" stroke="midnightblue" points="442.17,-144.25 435.31,-152.32 445.71,-150.29 442.17,-144.25"/>
</g>
<!-- Node24 -->
<g id="node24" class="node">
<title>Node24</title>
<g id="a_node24"><a xlink:href="class_ogre_1_1_metal_texture_manager.html" target="_top" xlink:title=" ">
<polygon fill="none" stroke="black" points="546.5,-38.5 546.5,-57.5 698.5,-57.5 698.5,-38.5 546.5,-38.5"/>
<text text-anchor="middle" x="622.5" y="-45.5" font-family="Helvetica,sans-Serif" font-size="10.00">Ogre::MetalTextureManager</text>
</a>
</g>
</g>
<!-- Node16&#45;&gt;Node24 -->
<g id="edge23" class="edge">
<title>Node16&#45;&gt;Node24</title>
<path fill="none" stroke="midnightblue" d="M434.51,-144.95C454.52,-123.33 492.1,-86.53 532,-67 539.99,-63.09 548.77,-59.98 557.6,-57.51"/>
<polygon fill="midnightblue" stroke="midnightblue" points="431.85,-142.66 427.73,-152.42 437.04,-147.37 431.85,-142.66"/>
</g>
<!-- Node25 -->
<g id="node25" class="node">
<title>Node25</title>
<g id="a_node25"><a xlink:href="class_ogre_1_1_tiny_texture_manager.html" target="_top" xlink:title=" ">
<polygon fill="none" stroke="black" points="550,-0.5 550,-19.5 695,-19.5 695,-0.5 550,-0.5"/>
<text text-anchor="middle" x="622.5" y="-7.5" font-family="Helvetica,sans-Serif" font-size="10.00">Ogre::TinyTextureManager</text>
</a>
</g>
</g>
<!-- Node16&#45;&gt;Node25 -->
<g id="edge24" class="edge">
<title>Node16&#45;&gt;Node25</title>
<path fill="none" stroke="midnightblue" d="M429.56,-143.65C446.58,-114.43 483.96,-57.73 532,-29 538.41,-25.17 545.48,-22.1 552.75,-19.65"/>
<polygon fill="midnightblue" stroke="midnightblue" points="426.47,-142 424.58,-152.42 432.56,-145.45 426.47,-142"/>
</g>
</g>
</svg>
