<?xml version="1.0" encoding="UTF-8" standalone="no"?>
<!DOCTYPE svg PUBLIC "-//W3C//DTD SVG 1.1//EN"
 "http://www.w3.org/Graphics/SVG/1.1/DTD/svg11.dtd">
<!-- Generated by graphviz version 2.43.0 (0)
 -->
<!-- Title: Ogre::ResourceManager Pages: 1 -->
<svg width="693pt" height="458pt"
 viewBox="0.00 0.00 693.00 458.00" xmlns="http://www.w3.org/2000/svg" xmlns:xlink="http://www.w3.org/1999/xlink">
<g id="graph0" class="graph" transform="scale(1 1) rotate(0) translate(4 454)">
<title>Ogre::ResourceManager</title>
<!-- Node1 -->
<g id="node1" class="node">
<title>Node1</title>
<g id="a_node1"><a xlink:title="Defines a generic resource handler.">
<polygon fill="#bfbfbf" stroke="black" points="143,-288.5 143,-307.5 277,-307.5 277,-288.5 143,-288.5"/>
<text text-anchor="middle" x="210" y="-295.5" font-family="Helvetica,sans-Serif" font-size="10.00">Ogre::ResourceManager</text>
</a>
</g>
</g>
<!-- Node4 -->
<g id="node4" class="node">
<title>Node4</title>
<g id="a_node4"><a xlink:href="class_ogre_1_1_compositor_manager.html" target="_top" xlink:title="Class for managing Compositor settings for Ogre.">
<polygon fill="none" stroke="black" points="318,-430.5 318,-449.5 463,-449.5 463,-430.5 318,-430.5"/>
<text text-anchor="middle" x="390.5" y="-437.5" font-family="Helvetica,sans-Serif" font-size="10.00">Ogre::CompositorManager</text>
</a>
</g>
</g>
<!-- Node1&#45;&gt;Node4 -->
<g id="edge3" class="edge">
<title>Node1&#45;&gt;Node4</title>
<path fill="none" stroke="midnightblue" d="M221.24,-316.7C237.17,-343.97 270.53,-394.32 313,-421 319.14,-424.86 326.02,-427.93 333.06,-430.38"/>
<polygon fill="midnightblue" stroke="midnightblue" points="224.16,-314.75 216.17,-307.78 218.07,-318.2 224.16,-314.75"/>
</g>
<!-- Node5 -->
<g id="node5" class="node">
<title>Node5</title>
<g id="a_node5"><a xlink:href="class_ogre_1_1_font_manager.html" target="_top" xlink:title="Manages Font resources, parsing .fontdef files and generally organising them.">
<polygon fill="none" stroke="black" points="335.5,-392.5 335.5,-411.5 445.5,-411.5 445.5,-392.5 335.5,-392.5"/>
<text text-anchor="middle" x="390.5" y="-399.5" font-family="Helvetica,sans-Serif" font-size="10.00">Ogre::FontManager</text>
</a>
</g>
</g>
<!-- Node1&#45;&gt;Node5 -->
<g id="edge4" class="edge">
<title>Node1&#45;&gt;Node5</title>
<path fill="none" stroke="midnightblue" d="M226.63,-315.02C245.32,-334.36 278.46,-365.49 313,-383 320.57,-386.84 328.96,-389.93 337.33,-392.41"/>
<polygon fill="midnightblue" stroke="midnightblue" points="228.95,-312.39 219.54,-307.53 223.87,-317.2 228.95,-312.39"/>
</g>
<!-- Node6 -->
<g id="node6" class="node">
<title>Node6</title>
<g id="a_node6"><a xlink:href="class_ogre_1_1_gpu_program_manager.html" target="_top" xlink:title=" ">
<polygon fill="none" stroke="black" points="316,-354.5 316,-373.5 465,-373.5 465,-354.5 316,-354.5"/>
<text text-anchor="middle" x="390.5" y="-361.5" font-family="Helvetica,sans-Serif" font-size="10.00">Ogre::GpuProgramManager</text>
</a>
</g>
</g>
<!-- Node1&#45;&gt;Node6 -->
<g id="edge5" class="edge">
<title>Node1&#45;&gt;Node6</title>
<path fill="none" stroke="midnightblue" d="M239.02,-312.18C259.23,-322.02 287.34,-334.93 313,-344 324.13,-347.93 336.42,-351.48 347.83,-354.46"/>
<polygon fill="midnightblue" stroke="midnightblue" points="240.3,-308.91 229.78,-307.62 237.21,-315.18 240.3,-308.91"/>
</g>
<!-- Node9 -->
<g id="node9" class="node">
<title>Node9</title>
<g id="a_node9"><a xlink:href="class_ogre_1_1_high_level_gpu_program_manager.html" target="_top" xlink:title="This ResourceManager manages high&#45;level vertex and fragment programs.">
<polygon fill="none" stroke="black" points="313,-305 313,-335 468,-335 468,-305 313,-305"/>
<text text-anchor="start" x="321" y="-323" font-family="Helvetica,sans-Serif" font-size="10.00">Ogre::HighLevelGpuProgram</text>
<text text-anchor="middle" x="390.5" y="-312" font-family="Helvetica,sans-Serif" font-size="10.00">Manager</text>
</a>
</g>
</g>
<!-- Node1&#45;&gt;Node9 -->
<g id="edge8" class="edge">
<title>Node1&#45;&gt;Node9</title>
<path fill="none" stroke="midnightblue" d="M287.4,-307.42C295.83,-308.46 304.42,-309.51 312.85,-310.55"/>
<polygon fill="midnightblue" stroke="midnightblue" points="287.57,-303.91 277.21,-306.16 286.71,-310.86 287.57,-303.91"/>
</g>
<!-- Node10 -->
<g id="node10" class="node">
<title>Node10</title>
<g id="a_node10"><a xlink:href="class_ogre_1_1_material_manager.html" target="_top" xlink:title="Class for managing Material settings for Ogre.">
<polygon fill="none" stroke="black" points="326,-266.5 326,-285.5 455,-285.5 455,-266.5 326,-266.5"/>
<text text-anchor="middle" x="390.5" y="-273.5" font-family="Helvetica,sans-Serif" font-size="10.00">Ogre::MaterialManager</text>
</a>
</g>
</g>
<!-- Node1&#45;&gt;Node10 -->
<g id="edge9" class="edge">
<title>Node1&#45;&gt;Node10</title>
<path fill="none" stroke="midnightblue" d="M287.38,-288.59C300.17,-287.01 313.33,-285.39 325.77,-283.86"/>
<polygon fill="midnightblue" stroke="midnightblue" points="286.71,-285.14 277.21,-289.84 287.57,-292.09 286.71,-285.14"/>
</g>
<!-- Node11 -->
<g id="node11" class="node">
<title>Node11</title>
<g id="a_node11"><a xlink:href="class_ogre_1_1_mesh_manager.html" target="_top" xlink:title="Handles the management of mesh resources.">
<polygon fill="none" stroke="black" points="333,-228.5 333,-247.5 448,-247.5 448,-228.5 333,-228.5"/>
<text text-anchor="middle" x="390.5" y="-235.5" font-family="Helvetica,sans-Serif" font-size="10.00">Ogre::MeshManager</text>
</a>
</g>
</g>
<!-- Node1&#45;&gt;Node11 -->
<g id="edge10" class="edge">
<title>Node1&#45;&gt;Node11</title>
<path fill="none" stroke="midnightblue" d="M241.43,-284.48C261.49,-275.88 288.5,-264.92 313,-257 323.81,-253.5 335.65,-250.28 346.72,-247.51"/>
<polygon fill="midnightblue" stroke="midnightblue" points="239.96,-281.3 232.17,-288.48 242.74,-287.72 239.96,-281.3"/>
</g>
<!-- Node12 -->
<g id="node12" class="node">
<title>Node12</title>
<g id="a_node12"><a xlink:href="class_ogre_1_1_skeleton_manager.html" target="_top" xlink:title="Handles the management of skeleton resources.">
<polygon fill="none" stroke="black" points="325,-190.5 325,-209.5 456,-209.5 456,-190.5 325,-190.5"/>
<text text-anchor="middle" x="390.5" y="-197.5" font-family="Helvetica,sans-Serif" font-size="10.00">Ogre::SkeletonManager</text>
</a>
</g>
</g>
<!-- Node1&#45;&gt;Node12 -->
<g id="edge11" class="edge">
<title>Node1&#45;&gt;Node12</title>
<path fill="none" stroke="midnightblue" d="M227.77,-281.38C246.83,-263.4 279.67,-235.15 313,-219 320.88,-215.18 329.6,-212.08 338.25,-209.59"/>
<polygon fill="midnightblue" stroke="midnightblue" points="225.26,-278.94 220.47,-288.39 230.11,-283.98 225.26,-278.94"/>
</g>
<!-- Node13 -->
<g id="node13" class="node">
<title>Node13</title>
<g id="a_node13"><a xlink:href="class_ogre_1_1_texture_manager.html" target="_top" xlink:title="Class for loading &amp; managing textures.">
<polygon fill="none" stroke="black" points="328,-152.5 328,-171.5 453,-171.5 453,-152.5 328,-152.5"/>
<text text-anchor="middle" x="390.5" y="-159.5" font-family="Helvetica,sans-Serif" font-size="10.00">Ogre::TextureManager</text>
</a>
</g>
</g>
<!-- Node1&#45;&gt;Node13 -->
<g id="edge12" class="edge">
<title>Node1&#45;&gt;Node13</title>
<path fill="none" stroke="midnightblue" d="M221.93,-279.49C238.33,-253.4 271.82,-206.17 313,-181 319.31,-177.15 326.35,-174.07 333.55,-171.62"/>
<polygon fill="midnightblue" stroke="midnightblue" points="218.73,-278.01 216.5,-288.37 224.7,-281.66 218.73,-278.01"/>
</g>
<!-- Node2 -->
<g id="node2" class="node">
<title>Node2</title>
<g id="a_node2"><a xlink:href="class_ogre_1_1_script_loader.html" target="_top" xlink:title="Abstract class defining the interface used by classes which wish to perform script loading to define ...">
<polygon fill="none" stroke="black" points="0,-307.5 0,-326.5 107,-326.5 107,-307.5 0,-307.5"/>
<text text-anchor="middle" x="53.5" y="-314.5" font-family="Helvetica,sans-Serif" font-size="10.00">Ogre::ScriptLoader</text>
</a>
</g>
</g>
<!-- Node2&#45;&gt;Node1 -->
<g id="edge1" class="edge">
<title>Node2&#45;&gt;Node1</title>
<path fill="none" stroke="midnightblue" d="M117.34,-309.27C125.74,-308.24 134.38,-307.18 142.84,-306.14"/>
<polygon fill="midnightblue" stroke="midnightblue" points="116.74,-305.82 107.24,-310.51 117.59,-312.77 116.74,-305.82"/>
</g>
<!-- Node3 -->
<g id="node3" class="node">
<title>Node3</title>
<g id="a_node3"><a xlink:title=" ">
<polygon fill="none" stroke="#bfbfbf" points="10.5,-269.5 10.5,-288.5 96.5,-288.5 96.5,-269.5 10.5,-269.5"/>
<text text-anchor="middle" x="53.5" y="-276.5" font-family="Helvetica,sans-Serif" font-size="10.00">ResourceAlloc</text>
</a>
</g>
</g>
<!-- Node3&#45;&gt;Node1 -->
<g id="edge2" class="edge">
<title>Node3&#45;&gt;Node1</title>
<path fill="none" stroke="midnightblue" d="M106.65,-285.41C118.24,-286.84 130.67,-288.37 142.74,-289.85"/>
<polygon fill="midnightblue" stroke="midnightblue" points="107.07,-281.94 96.72,-284.19 106.22,-288.89 107.07,-281.94"/>
</g>
<!-- Node7 -->
<g id="node7" class="node">
<title>Node7</title>
<g id="a_node7"><a xlink:href="class_ogre_1_1_d3_d9_gpu_program_manager.html" target="_top" xlink:title=" ">
<polygon fill="none" stroke="black" points="506.5,-386.5 506.5,-405.5 682.5,-405.5 682.5,-386.5 506.5,-386.5"/>
<text text-anchor="middle" x="594.5" y="-393.5" font-family="Helvetica,sans-Serif" font-size="10.00">Ogre::D3D9GpuProgramManager</text>
</a>
</g>
</g>
<!-- Node6&#45;&gt;Node7 -->
<g id="edge6" class="edge">
<title>Node6&#45;&gt;Node7</title>
<path fill="none" stroke="midnightblue" d="M461.74,-375.13C485.07,-378.82 510.82,-382.9 533.32,-386.47"/>
<polygon fill="midnightblue" stroke="midnightblue" points="461.98,-371.62 451.56,-373.51 460.89,-378.54 461.98,-371.62"/>
</g>
<!-- Node8 -->
<g id="node8" class="node">
<title>Node8</title>
<g id="a_node8"><a xlink:href="class_ogre_1_1_g_l_gpu_program_manager.html" target="_top" xlink:title=" ">
<polygon fill="none" stroke="black" points="513.5,-348.5 513.5,-367.5 675.5,-367.5 675.5,-348.5 513.5,-348.5"/>
<text text-anchor="middle" x="594.5" y="-355.5" font-family="Helvetica,sans-Serif" font-size="10.00">Ogre::GLGpuProgramManager</text>
</a>
</g>
</g>
<!-- Node6&#45;&gt;Node8 -->
<g id="edge7" class="edge">
<title>Node6&#45;&gt;Node8</title>
<path fill="none" stroke="midnightblue" d="M475.31,-361.51C487.92,-361.14 500.91,-360.75 513.45,-360.38"/>
<polygon fill="midnightblue" stroke="midnightblue" points="475.18,-358.01 465.28,-361.81 475.38,-365.01 475.18,-358.01"/>
</g>
<!-- Node14 -->
<g id="node14" class="node">
<title>Node14</title>
<g id="a_node14"><a xlink:href="class_ogre_1_1_d3_d11_texture_manager.html" target="_top" xlink:title=" ">
<polygon fill="none" stroke="black" points="515.5,-304.5 515.5,-323.5 673.5,-323.5 673.5,-304.5 515.5,-304.5"/>
<text text-anchor="middle" x="594.5" y="-311.5" font-family="Helvetica,sans-Serif" font-size="10.00">Ogre::D3D11TextureManager</text>
</a>
</g>
</g>
<!-- Node13&#45;&gt;Node14 -->
<g id="edge13" class="edge">
<title>Node13&#45;&gt;Node14</title>
<path fill="none" stroke="midnightblue" d="M462.44,-176.48C464.4,-177.86 466.26,-179.36 468,-181 506.73,-217.38 464.66,-259.29 504,-295 508.12,-298.74 512.78,-301.81 517.77,-304.32"/>
<polygon fill="midnightblue" stroke="midnightblue" points="463.75,-173.2 453.34,-171.2 460.24,-179.25 463.75,-173.2"/>
</g>
<!-- Node15 -->
<g id="node15" class="node">
<title>Node15</title>
<g id="a_node15"><a xlink:href="class_ogre_1_1_d3_d9_texture_manager.html" target="_top" xlink:title=" ">
<polygon fill="none" stroke="black" points="518.5,-266.5 518.5,-285.5 670.5,-285.5 670.5,-266.5 518.5,-266.5"/>
<text text-anchor="middle" x="594.5" y="-273.5" font-family="Helvetica,sans-Serif" font-size="10.00">Ogre::D3D9TextureManager</text>
</a>
</g>
</g>
<!-- Node13&#45;&gt;Node15 -->
<g id="edge14" class="edge">
<title>Node13&#45;&gt;Node15</title>
<path fill="none" stroke="midnightblue" d="M461.54,-176.41C463.8,-177.81 465.96,-179.33 468,-181 496.92,-204.67 474.68,-233.83 504,-257 508.86,-260.84 514.32,-263.95 520.08,-266.47"/>
<polygon fill="midnightblue" stroke="midnightblue" points="462.9,-173.18 452.41,-171.66 459.67,-179.38 462.9,-173.18"/>
</g>
<!-- Node16 -->
<g id="node16" class="node">
<title>Node16</title>
<g id="a_node16"><a xlink:href="class_ogre_1_1_default_texture_manager.html" target="_top" xlink:title="Specialisation of TextureManager for offline processing. Cannot be used with an active RenderSystem.">
<polygon fill="none" stroke="black" points="514,-228.5 514,-247.5 675,-247.5 675,-228.5 514,-228.5"/>
<text text-anchor="middle" x="594.5" y="-235.5" font-family="Helvetica,sans-Serif" font-size="10.00">Ogre::DefaultTextureManager</text>
</a>
</g>
</g>
<!-- Node13&#45;&gt;Node16 -->
<g id="edge15" class="edge">
<title>Node13&#45;&gt;Node16</title>
<path fill="none" stroke="midnightblue" d="M456.22,-175.2C460.31,-176.9 464.28,-178.83 468,-181 488.1,-192.72 483.71,-207.63 504,-219 510.93,-222.88 518.56,-225.97 526.37,-228.43"/>
<polygon fill="midnightblue" stroke="midnightblue" points="457.09,-171.79 446.5,-171.6 454.66,-178.35 457.09,-171.79"/>
</g>
<!-- Node17 -->
<g id="node17" class="node">
<title>Node17</title>
<g id="a_node17"><a xlink:href="class_ogre_1_1_g_l3_plus_texture_manager.html" target="_top" xlink:title="GL3Plus&#45;specific implementation of a TextureManager.">
<polygon fill="none" stroke="black" points="512.5,-190.5 512.5,-209.5 676.5,-209.5 676.5,-190.5 512.5,-190.5"/>
<text text-anchor="middle" x="594.5" y="-197.5" font-family="Helvetica,sans-Serif" font-size="10.00">Ogre::GL3PlusTextureManager</text>
</a>
</g>
</g>
<!-- Node13&#45;&gt;Node17 -->
<g id="edge16" class="edge">
<title>Node13&#45;&gt;Node17</title>
<path fill="none" stroke="midnightblue" d="M452.2,-173.42C481.1,-178.86 515.27,-185.28 542.77,-190.46"/>
<polygon fill="midnightblue" stroke="midnightblue" points="452.69,-169.95 442.21,-171.54 451.39,-176.83 452.69,-169.95"/>
</g>
<!-- Node18 -->
<g id="node18" class="node">
<title>Node18</title>
<g id="a_node18"><a xlink:href="class_ogre_1_1_g_l_e_s2_texture_manager.html" target="_top" xlink:title="GL ES&#45;specific implementation of a TextureManager.">
<polygon fill="none" stroke="black" points="517,-152.5 517,-171.5 672,-171.5 672,-152.5 517,-152.5"/>
<text text-anchor="middle" x="594.5" y="-159.5" font-family="Helvetica,sans-Serif" font-size="10.00">Ogre::GLES2TextureManager</text>
</a>
</g>
</g>
<!-- Node13&#45;&gt;Node18 -->
<g id="edge17" class="edge">
<title>Node13&#45;&gt;Node18</title>
<path fill="none" stroke="midnightblue" d="M463.26,-162C480.63,-162 499.25,-162 516.83,-162"/>
<polygon fill="midnightblue" stroke="midnightblue" points="463.2,-158.5 453.2,-162 463.2,-165.5 463.2,-158.5"/>
</g>
<!-- Node19 -->
<g id="node19" class="node">
<title>Node19</title>
<g id="a_node19"><a xlink:href="class_ogre_1_1_g_l_texture_manager.html" target="_top" xlink:title="GL&#45;specific implementation of a TextureManager.">
<polygon fill="none" stroke="black" points="526,-114.5 526,-133.5 663,-133.5 663,-114.5 526,-114.5"/>
<text text-anchor="middle" x="594.5" y="-121.5" font-family="Helvetica,sans-Serif" font-size="10.00">Ogre::GLTextureManager</text>
</a>
</g>
</g>
<!-- Node13&#45;&gt;Node19 -->
<g id="edge18" class="edge">
<title>Node13&#45;&gt;Node19</title>
<path fill="none" stroke="midnightblue" d="M452.2,-150.58C481.1,-145.14 515.27,-138.72 542.77,-133.54"/>
<polygon fill="midnightblue" stroke="midnightblue" points="451.39,-147.17 442.21,-152.46 452.69,-154.05 451.39,-147.17"/>
</g>
<!-- Node20 -->
<g id="node20" class="node">
<title>Node20</title>
<g id="a_node20"><a xlink:href="class_ogre_1_1_g_l_texture_manager_common.html" target="_top" xlink:title=" ">
<polygon fill="none" stroke="black" points="504,-76.5 504,-95.5 685,-95.5 685,-76.5 504,-76.5"/>
<text text-anchor="middle" x="594.5" y="-83.5" font-family="Helvetica,sans-Serif" font-size="10.00">Ogre::GLTextureManagerCommon</text>
</a>
</g>
</g>
<!-- Node13&#45;&gt;Node20 -->
<g id="edge19" class="edge">
<title>Node13&#45;&gt;Node20</title>
<path fill="none" stroke="midnightblue" d="M416.08,-147.19C438.34,-134.36 472.38,-116.15 504,-105 514.64,-101.25 526.26,-98.12 537.5,-95.55"/>
<polygon fill="midnightblue" stroke="midnightblue" points="414.17,-144.25 407.31,-152.32 417.71,-150.29 414.17,-144.25"/>
</g>
<!-- Node21 -->
<g id="node21" class="node">
<title>Node21</title>
<g id="a_node21"><a xlink:href="class_ogre_1_1_metal_texture_manager.html" target="_top" xlink:title=" ">
<polygon fill="none" stroke="black" points="518.5,-38.5 518.5,-57.5 670.5,-57.5 670.5,-38.5 518.5,-38.5"/>
<text text-anchor="middle" x="594.5" y="-45.5" font-family="Helvetica,sans-Serif" font-size="10.00">Ogre::MetalTextureManager</text>
</a>
</g>
</g>
<!-- Node13&#45;&gt;Node21 -->
<g id="edge20" class="edge">
<title>Node13&#45;&gt;Node21</title>
<path fill="none" stroke="midnightblue" d="M406.51,-144.95C426.52,-123.33 464.1,-86.53 504,-67 511.99,-63.09 520.77,-59.98 529.6,-57.51"/>
<polygon fill="midnightblue" stroke="midnightblue" points="403.85,-142.66 399.73,-152.42 409.04,-147.37 403.85,-142.66"/>
</g>
<!-- Node22 -->
<g id="node22" class="node">
<title>Node22</title>
<g id="a_node22"><a xlink:href="class_ogre_1_1_tiny_texture_manager.html" target="_top" xlink:title=" ">
<polygon fill="none" stroke="black" points="522,-0.5 522,-19.5 667,-19.5 667,-0.5 522,-0.5"/>
<text text-anchor="middle" x="594.5" y="-7.5" font-family="Helvetica,sans-Serif" font-size="10.00">Ogre::TinyTextureManager</text>
</a>
</g>
</g>
<!-- Node13&#45;&gt;Node22 -->
<g id="edge21" class="edge">
<title>Node13&#45;&gt;Node22</title>
<path fill="none" stroke="midnightblue" d="M401.56,-143.65C418.58,-114.43 455.96,-57.73 504,-29 510.41,-25.17 517.48,-22.1 524.75,-19.65"/>
<polygon fill="midnightblue" stroke="midnightblue" points="398.47,-142 396.58,-152.42 404.56,-145.45 398.47,-142"/>
</g>
</g>
</svg>
