<?xml version="1.0" encoding="UTF-8" standalone="no"?>
<!DOCTYPE svg PUBLIC "-//W3C//DTD SVG 1.1//EN"
 "http://www.w3.org/Graphics/SVG/1.1/DTD/svg11.dtd">
<!-- Generated by graphviz version 2.43.0 (0)
 -->
<!-- Title: Ogre::MovableObjectFactory Pages: 1 -->
<svg width="639pt" height="332pt"
 viewBox="0.00 0.00 639.00 332.00" xmlns="http://www.w3.org/2000/svg" xmlns:xlink="http://www.w3.org/1999/xlink">
<g id="graph0" class="graph" transform="scale(1 1) rotate(0) translate(4 328)">
<title>Ogre::MovableObjectFactory</title>
<!-- Node1 -->
<g id="node1" class="node">
<title>Node1</title>
<g id="a_node1"><a xlink:title="Interface definition for a factory class which produces a certain kind of MovableObject,...">
<polygon fill="#bfbfbf" stroke="black" points="119,-152.5 119,-171.5 274,-171.5 274,-152.5 119,-152.5"/>
<text text-anchor="middle" x="196.5" y="-159.5" font-family="Helvetica,sans-Serif" font-size="10.00">Ogre::MovableObjectFactory</text>
</a>
</g>
</g>
<!-- Node3 -->
<g id="node3" class="node">
<title>Node3</title>
<g id="a_node3"><a xlink:href="class_ogre_1_1_billboard_chain_factory.html" target="_top" xlink:title="Factory object for creating BillboardChain instances.">
<polygon fill="none" stroke="black" points="311,-304.5 311,-323.5 464,-323.5 464,-304.5 311,-304.5"/>
<text text-anchor="middle" x="387.5" y="-311.5" font-family="Helvetica,sans-Serif" font-size="10.00">Ogre::BillboardChainFactory</text>
</a>
</g>
</g>
<!-- Node1&#45;&gt;Node3 -->
<g id="edge2" class="edge">
<title>Node1&#45;&gt;Node3</title>
<path fill="none" stroke="midnightblue" d="M207.92,-180.59C225.22,-209.66 262.69,-265.6 310,-295 316.28,-298.9 323.31,-302 330.5,-304.47"/>
<polygon fill="midnightblue" stroke="midnightblue" points="210.89,-178.73 202.85,-171.84 204.84,-182.24 210.89,-178.73"/>
</g>
<!-- Node4 -->
<g id="node4" class="node">
<title>Node4</title>
<g id="a_node4"><a xlink:href="class_ogre_1_1_billboard_set_factory.html" target="_top" xlink:title="Factory object for creating BillboardSet instances.">
<polygon fill="none" stroke="black" points="317,-266.5 317,-285.5 458,-285.5 458,-266.5 317,-266.5"/>
<text text-anchor="middle" x="387.5" y="-273.5" font-family="Helvetica,sans-Serif" font-size="10.00">Ogre::BillboardSetFactory</text>
</a>
</g>
</g>
<!-- Node1&#45;&gt;Node4 -->
<g id="edge3" class="edge">
<title>Node1&#45;&gt;Node4</title>
<path fill="none" stroke="midnightblue" d="M212.92,-179.17C233.13,-200.61 270.64,-236.89 310,-257 317.56,-260.86 325.94,-263.97 334.3,-266.45"/>
<polygon fill="midnightblue" stroke="midnightblue" points="215.42,-176.71 206.06,-171.75 210.28,-181.47 215.42,-176.71"/>
</g>
<!-- Node5 -->
<g id="node5" class="node">
<title>Node5</title>
<g id="a_node5"><a xlink:href="class_ogre_1_1_entity_factory.html" target="_top" xlink:title="Factory object for creating Entity instances.">
<polygon fill="none" stroke="black" points="332.5,-228.5 332.5,-247.5 442.5,-247.5 442.5,-228.5 332.5,-228.5"/>
<text text-anchor="middle" x="387.5" y="-235.5" font-family="Helvetica,sans-Serif" font-size="10.00">Ogre::EntityFactory</text>
</a>
</g>
</g>
<!-- Node1&#45;&gt;Node5 -->
<g id="edge4" class="edge">
<title>Node1&#45;&gt;Node5</title>
<path fill="none" stroke="midnightblue" d="M222.56,-176.77C244.89,-189.42 278.76,-207.38 310,-219 319.75,-222.63 330.45,-225.77 340.68,-228.41"/>
<polygon fill="midnightblue" stroke="midnightblue" points="224.16,-173.65 213.74,-171.71 220.67,-179.72 224.16,-173.65"/>
</g>
<!-- Node6 -->
<g id="node6" class="node">
<title>Node6</title>
<g id="a_node6"><a xlink:href="class_ogre_1_1_light_factory.html" target="_top" xlink:title="Factory object for creating Light instances.">
<polygon fill="none" stroke="black" points="334.5,-190.5 334.5,-209.5 440.5,-209.5 440.5,-190.5 334.5,-190.5"/>
<text text-anchor="middle" x="387.5" y="-197.5" font-family="Helvetica,sans-Serif" font-size="10.00">Ogre::LightFactory</text>
</a>
</g>
</g>
<!-- Node1&#45;&gt;Node6 -->
<g id="edge5" class="edge">
<title>Node1&#45;&gt;Node6</title>
<path fill="none" stroke="midnightblue" d="M255.24,-173.61C282.12,-179.01 313.7,-185.36 339.15,-190.48"/>
<polygon fill="midnightblue" stroke="midnightblue" points="255.69,-170.13 245.19,-171.59 254.31,-176.99 255.69,-170.13"/>
</g>
<!-- Node7 -->
<g id="node7" class="node">
<title>Node7</title>
<g id="a_node7"><a xlink:href="class_ogre_1_1_manual_object_factory.html" target="_top" xlink:title="Factory object for creating ManualObject instances.">
<polygon fill="none" stroke="black" points="313,-152.5 313,-171.5 462,-171.5 462,-152.5 313,-152.5"/>
<text text-anchor="middle" x="387.5" y="-159.5" font-family="Helvetica,sans-Serif" font-size="10.00">Ogre::ManualObjectFactory</text>
</a>
</g>
</g>
<!-- Node1&#45;&gt;Node7 -->
<g id="edge6" class="edge">
<title>Node1&#45;&gt;Node7</title>
<path fill="none" stroke="midnightblue" d="M284.37,-162C293.89,-162 303.51,-162 312.85,-162"/>
<polygon fill="midnightblue" stroke="midnightblue" points="284.1,-158.5 274.1,-162 284.1,-165.5 284.1,-158.5"/>
</g>
<!-- Node8 -->
<g id="node8" class="node">
<title>Node8</title>
<g id="a_node8"><a xlink:href="class_ogre_1_1_particle_system_factory.html" target="_top" xlink:title="Factory object for creating ParticleSystem instances.">
<polygon fill="none" stroke="black" points="310,-114.5 310,-133.5 465,-133.5 465,-114.5 310,-114.5"/>
<text text-anchor="middle" x="387.5" y="-121.5" font-family="Helvetica,sans-Serif" font-size="10.00">Ogre::ParticleSystemFactory</text>
</a>
</g>
</g>
<!-- Node1&#45;&gt;Node8 -->
<g id="edge7" class="edge">
<title>Node1&#45;&gt;Node8</title>
<path fill="none" stroke="midnightblue" d="M255.24,-150.39C282.12,-144.99 313.7,-138.64 339.15,-133.52"/>
<polygon fill="midnightblue" stroke="midnightblue" points="254.31,-147.01 245.19,-152.41 255.69,-153.87 254.31,-147.01"/>
</g>
<!-- Node9 -->
<g id="node9" class="node">
<title>Node9</title>
<g id="a_node9"><a xlink:href="class_ogre_1_1_p_c_z_light_factory.html" target="_top" xlink:title="Factory object for creating PCZLight instances.">
<polygon fill="none" stroke="black" points="325,-76.5 325,-95.5 450,-95.5 450,-76.5 325,-76.5"/>
<text text-anchor="middle" x="387.5" y="-83.5" font-family="Helvetica,sans-Serif" font-size="10.00">Ogre::PCZLightFactory</text>
</a>
</g>
</g>
<!-- Node1&#45;&gt;Node9 -->
<g id="edge8" class="edge">
<title>Node1&#45;&gt;Node9</title>
<path fill="none" stroke="midnightblue" d="M222.56,-147.23C244.89,-134.58 278.76,-116.62 310,-105 319.75,-101.37 330.45,-98.23 340.68,-95.59"/>
<polygon fill="midnightblue" stroke="midnightblue" points="220.67,-144.28 213.74,-152.29 224.16,-150.35 220.67,-144.28"/>
</g>
<!-- Node10 -->
<g id="node10" class="node">
<title>Node10</title>
<g id="a_node10"><a xlink:href="class_ogre_1_1_portal_base_factory.html" target="_top" xlink:title="Factory object for creating Portal instances.">
<polygon fill="none" stroke="black" points="320.5,-38.5 320.5,-57.5 454.5,-57.5 454.5,-38.5 320.5,-38.5"/>
<text text-anchor="middle" x="387.5" y="-45.5" font-family="Helvetica,sans-Serif" font-size="10.00">Ogre::PortalBaseFactory</text>
</a>
</g>
</g>
<!-- Node1&#45;&gt;Node10 -->
<g id="edge9" class="edge">
<title>Node1&#45;&gt;Node10</title>
<path fill="none" stroke="midnightblue" d="M212.92,-144.83C233.13,-123.39 270.64,-87.11 310,-67 317.56,-63.14 325.94,-60.03 334.3,-57.55"/>
<polygon fill="midnightblue" stroke="midnightblue" points="210.28,-142.53 206.06,-152.25 215.42,-147.29 210.28,-142.53"/>
</g>
<!-- Node13 -->
<g id="node13" class="node">
<title>Node13</title>
<g id="a_node13"><a xlink:href="class_ogre_1_1_ribbon_trail_factory.html" target="_top" xlink:title="Factory object for creating RibbonTrail instances.">
<polygon fill="none" stroke="black" points="319,-0.5 319,-19.5 456,-19.5 456,-0.5 319,-0.5"/>
<text text-anchor="middle" x="387.5" y="-7.5" font-family="Helvetica,sans-Serif" font-size="10.00">Ogre::RibbonTrailFactory</text>
</a>
</g>
</g>
<!-- Node1&#45;&gt;Node13 -->
<g id="edge12" class="edge">
<title>Node1&#45;&gt;Node13</title>
<path fill="none" stroke="midnightblue" d="M207.92,-143.41C225.22,-114.34 262.69,-58.4 310,-29 316.28,-25.1 323.31,-22 330.5,-19.53"/>
<polygon fill="midnightblue" stroke="midnightblue" points="204.84,-141.76 202.85,-152.16 210.89,-145.27 204.84,-141.76"/>
</g>
<!-- Node2 -->
<g id="node2" class="node">
<title>Node2</title>
<g id="a_node2"><a xlink:title=" ">
<polygon fill="none" stroke="#bfbfbf" points="0,-152.5 0,-171.5 83,-171.5 83,-152.5 0,-152.5"/>
<text text-anchor="middle" x="41.5" y="-159.5" font-family="Helvetica,sans-Serif" font-size="10.00">MovableAlloc</text>
</a>
</g>
</g>
<!-- Node2&#45;&gt;Node1 -->
<g id="edge1" class="edge">
<title>Node2&#45;&gt;Node1</title>
<path fill="none" stroke="midnightblue" d="M93.26,-162C101.51,-162 110.2,-162 118.89,-162"/>
<polygon fill="midnightblue" stroke="midnightblue" points="93.1,-158.5 83.1,-162 93.1,-165.5 93.1,-158.5"/>
</g>
<!-- Node11 -->
<g id="node11" class="node">
<title>Node11</title>
<g id="a_node11"><a xlink:href="class_ogre_1_1_anti_portal_factory.html" target="_top" xlink:title="Factory object for creating AntiPortal instances.">
<polygon fill="none" stroke="black" points="501,-57.5 501,-76.5 631,-76.5 631,-57.5 501,-57.5"/>
<text text-anchor="middle" x="566" y="-64.5" font-family="Helvetica,sans-Serif" font-size="10.00">Ogre::AntiPortalFactory</text>
</a>
</g>
</g>
<!-- Node10&#45;&gt;Node11 -->
<g id="edge10" class="edge">
<title>Node10&#45;&gt;Node11</title>
<path fill="none" stroke="midnightblue" d="M464.72,-56.21C476.73,-57.5 489.04,-58.82 500.75,-60.08"/>
<polygon fill="midnightblue" stroke="midnightblue" points="465.04,-52.72 454.72,-55.13 464.29,-59.68 465.04,-52.72"/>
</g>
<!-- Node12 -->
<g id="node12" class="node">
<title>Node12</title>
<g id="a_node12"><a xlink:href="class_ogre_1_1_portal_factory.html" target="_top" xlink:title="Factory object for creating Portal instances.">
<polygon fill="none" stroke="black" points="511,-19.5 511,-38.5 621,-38.5 621,-19.5 511,-19.5"/>
<text text-anchor="middle" x="566" y="-26.5" font-family="Helvetica,sans-Serif" font-size="10.00">Ogre::PortalFactory</text>
</a>
</g>
</g>
<!-- Node10&#45;&gt;Node12 -->
<g id="edge11" class="edge">
<title>Node10&#45;&gt;Node12</title>
<path fill="none" stroke="midnightblue" d="M464.8,-39.79C480.28,-38.12 496.26,-36.4 510.78,-34.84"/>
<polygon fill="midnightblue" stroke="midnightblue" points="464.29,-36.32 454.72,-40.87 465.04,-43.28 464.29,-36.32"/>
</g>
</g>
</svg>
