<?xml version="1.0" encoding="UTF-8" standalone="no"?>
<!DOCTYPE svg PUBLIC "-//W3C//DTD SVG 1.1//EN"
 "http://www.w3.org/Graphics/SVG/1.1/DTD/svg11.dtd">
<!-- Generated by graphviz version 2.43.0 (0)
 -->
<!-- Title: Ogre::TextureManager Pages: 1 -->
<svg width="668pt" height="332pt"
 viewBox="0.00 0.00 668.00 332.00" xmlns="http://www.w3.org/2000/svg" xmlns:xlink="http://www.w3.org/1999/xlink">
<g id="graph0" class="graph" transform="scale(1 1) rotate(0) translate(4 328)">
<title>Ogre::TextureManager</title>
<!-- Node1 -->
<g id="node1" class="node">
<title>Node1</title>
<g id="a_node1"><a xlink:title="Class for loading &amp; managing textures.">
<polygon fill="#bfbfbf" stroke="black" points="318,-152.5 318,-171.5 443,-171.5 443,-152.5 318,-152.5"/>
<text text-anchor="middle" x="380.5" y="-159.5" font-family="Helvetica,sans-Serif" font-size="10.00">Ogre::TextureManager</text>
</a>
</g>
</g>
<!-- Node6 -->
<g id="node6" class="node">
<title>Node6</title>
<g id="a_node6"><a xlink:href="class_ogre_1_1_d3_d11_texture_manager.html" target="_top" xlink:title=" ">
<polygon fill="none" stroke="black" points="490.5,-304.5 490.5,-323.5 648.5,-323.5 648.5,-304.5 490.5,-304.5"/>
<text text-anchor="middle" x="569.5" y="-311.5" font-family="Helvetica,sans-Serif" font-size="10.00">Ogre::D3D11TextureManager</text>
</a>
</g>
</g>
<!-- Node1&#45;&gt;Node6 -->
<g id="edge5" class="edge">
<title>Node1&#45;&gt;Node6</title>
<path fill="none" stroke="midnightblue" d="M389.74,-180.73C403.65,-210.04 434.69,-266.37 479,-295 485,-298.88 491.66,-301.98 498.56,-304.46"/>
<polygon fill="midnightblue" stroke="midnightblue" points="392.89,-179.2 385.54,-171.58 386.53,-182.12 392.89,-179.2"/>
</g>
<!-- Node7 -->
<g id="node7" class="node">
<title>Node7</title>
<g id="a_node7"><a xlink:href="class_ogre_1_1_d3_d9_texture_manager.html" target="_top" xlink:title=" ">
<polygon fill="none" stroke="black" points="493.5,-266.5 493.5,-285.5 645.5,-285.5 645.5,-266.5 493.5,-266.5"/>
<text text-anchor="middle" x="569.5" y="-273.5" font-family="Helvetica,sans-Serif" font-size="10.00">Ogre::D3D9TextureManager</text>
</a>
</g>
</g>
<!-- Node1&#45;&gt;Node7 -->
<g id="edge6" class="edge">
<title>Node1&#45;&gt;Node7</title>
<path fill="none" stroke="midnightblue" d="M394.45,-179.68C411.36,-201.43 443.09,-237.81 479,-257 486.28,-260.89 494.3,-263.99 502.46,-266.45"/>
<polygon fill="midnightblue" stroke="midnightblue" points="397.16,-177.46 388.32,-171.61 391.58,-181.69 397.16,-177.46"/>
</g>
<!-- Node8 -->
<g id="node8" class="node">
<title>Node8</title>
<g id="a_node8"><a xlink:href="class_ogre_1_1_default_texture_manager.html" target="_top" xlink:title="Specialisation of TextureManager for offline processing. Cannot be used with an active RenderSystem.">
<polygon fill="none" stroke="black" points="489,-228.5 489,-247.5 650,-247.5 650,-228.5 489,-228.5"/>
<text text-anchor="middle" x="569.5" y="-235.5" font-family="Helvetica,sans-Serif" font-size="10.00">Ogre::DefaultTextureManager</text>
</a>
</g>
</g>
<!-- Node1&#45;&gt;Node8 -->
<g id="edge7" class="edge">
<title>Node1&#45;&gt;Node8</title>
<path fill="none" stroke="midnightblue" d="M402.96,-177.27C422.07,-190.18 451.22,-208.25 479,-219 488.78,-222.78 499.46,-225.88 509.94,-228.39"/>
<polygon fill="midnightblue" stroke="midnightblue" points="404.91,-174.36 394.68,-171.57 400.94,-180.13 404.91,-174.36"/>
</g>
<!-- Node9 -->
<g id="node9" class="node">
<title>Node9</title>
<g id="a_node9"><a xlink:href="class_ogre_1_1_g_l3_plus_texture_manager.html" target="_top" xlink:title="GL3Plus&#45;specific implementation of a TextureManager.">
<polygon fill="none" stroke="black" points="487.5,-190.5 487.5,-209.5 651.5,-209.5 651.5,-190.5 487.5,-190.5"/>
<text text-anchor="middle" x="569.5" y="-197.5" font-family="Helvetica,sans-Serif" font-size="10.00">Ogre::GL3PlusTextureManager</text>
</a>
</g>
</g>
<!-- Node1&#45;&gt;Node9 -->
<g id="edge8" class="edge">
<title>Node1&#45;&gt;Node9</title>
<path fill="none" stroke="midnightblue" d="M438.63,-173.61C465.23,-179.01 496.47,-185.36 521.65,-190.48"/>
<polygon fill="midnightblue" stroke="midnightblue" points="439.18,-170.15 428.69,-171.59 437.79,-177.01 439.18,-170.15"/>
</g>
<!-- Node10 -->
<g id="node10" class="node">
<title>Node10</title>
<g id="a_node10"><a xlink:href="class_ogre_1_1_g_l_e_s2_texture_manager.html" target="_top" xlink:title="GL ES&#45;specific implementation of a TextureManager.">
<polygon fill="none" stroke="black" points="492,-152.5 492,-171.5 647,-171.5 647,-152.5 492,-152.5"/>
<text text-anchor="middle" x="569.5" y="-159.5" font-family="Helvetica,sans-Serif" font-size="10.00">Ogre::GLES2TextureManager</text>
</a>
</g>
</g>
<!-- Node1&#45;&gt;Node10 -->
<g id="edge9" class="edge">
<title>Node1&#45;&gt;Node10</title>
<path fill="none" stroke="midnightblue" d="M453.61,-162C466.12,-162 479.18,-162 491.81,-162"/>
<polygon fill="midnightblue" stroke="midnightblue" points="453.25,-158.5 443.25,-162 453.25,-165.5 453.25,-158.5"/>
</g>
<!-- Node11 -->
<g id="node11" class="node">
<title>Node11</title>
<g id="a_node11"><a xlink:href="class_ogre_1_1_g_l_texture_manager.html" target="_top" xlink:title="GL&#45;specific implementation of a TextureManager.">
<polygon fill="none" stroke="black" points="501,-114.5 501,-133.5 638,-133.5 638,-114.5 501,-114.5"/>
<text text-anchor="middle" x="569.5" y="-121.5" font-family="Helvetica,sans-Serif" font-size="10.00">Ogre::GLTextureManager</text>
</a>
</g>
</g>
<!-- Node1&#45;&gt;Node11 -->
<g id="edge10" class="edge">
<title>Node1&#45;&gt;Node11</title>
<path fill="none" stroke="midnightblue" d="M438.63,-150.39C465.23,-144.99 496.47,-138.64 521.65,-133.52"/>
<polygon fill="midnightblue" stroke="midnightblue" points="437.79,-146.99 428.69,-152.41 439.18,-153.85 437.79,-146.99"/>
</g>
<!-- Node12 -->
<g id="node12" class="node">
<title>Node12</title>
<g id="a_node12"><a xlink:href="class_ogre_1_1_g_l_texture_manager_common.html" target="_top" xlink:title=" ">
<polygon fill="none" stroke="black" points="479,-76.5 479,-95.5 660,-95.5 660,-76.5 479,-76.5"/>
<text text-anchor="middle" x="569.5" y="-83.5" font-family="Helvetica,sans-Serif" font-size="10.00">Ogre::GLTextureManagerCommon</text>
</a>
</g>
</g>
<!-- Node1&#45;&gt;Node12 -->
<g id="edge11" class="edge">
<title>Node1&#45;&gt;Node12</title>
<path fill="none" stroke="midnightblue" d="M402.96,-146.73C422.07,-133.82 451.22,-115.75 479,-105 488.78,-101.22 499.46,-98.12 509.94,-95.61"/>
<polygon fill="midnightblue" stroke="midnightblue" points="400.94,-143.87 394.68,-152.43 404.91,-149.64 400.94,-143.87"/>
</g>
<!-- Node13 -->
<g id="node13" class="node">
<title>Node13</title>
<g id="a_node13"><a xlink:href="class_ogre_1_1_metal_texture_manager.html" target="_top" xlink:title=" ">
<polygon fill="none" stroke="black" points="493.5,-38.5 493.5,-57.5 645.5,-57.5 645.5,-38.5 493.5,-38.5"/>
<text text-anchor="middle" x="569.5" y="-45.5" font-family="Helvetica,sans-Serif" font-size="10.00">Ogre::MetalTextureManager</text>
</a>
</g>
</g>
<!-- Node1&#45;&gt;Node13 -->
<g id="edge12" class="edge">
<title>Node1&#45;&gt;Node13</title>
<path fill="none" stroke="midnightblue" d="M394.45,-144.32C411.36,-122.57 443.09,-86.19 479,-67 486.28,-63.11 494.3,-60.01 502.46,-57.55"/>
<polygon fill="midnightblue" stroke="midnightblue" points="391.58,-142.31 388.32,-152.39 397.16,-146.54 391.58,-142.31"/>
</g>
<!-- Node14 -->
<g id="node14" class="node">
<title>Node14</title>
<g id="a_node14"><a xlink:href="class_ogre_1_1_tiny_texture_manager.html" target="_top" xlink:title=" ">
<polygon fill="none" stroke="black" points="497,-0.5 497,-19.5 642,-19.5 642,-0.5 497,-0.5"/>
<text text-anchor="middle" x="569.5" y="-7.5" font-family="Helvetica,sans-Serif" font-size="10.00">Ogre::TinyTextureManager</text>
</a>
</g>
</g>
<!-- Node1&#45;&gt;Node14 -->
<g id="edge13" class="edge">
<title>Node1&#45;&gt;Node14</title>
<path fill="none" stroke="midnightblue" d="M389.74,-143.27C403.65,-113.96 434.69,-57.63 479,-29 485,-25.12 491.66,-22.02 498.56,-19.54"/>
<polygon fill="midnightblue" stroke="midnightblue" points="386.53,-141.88 385.54,-152.42 392.89,-144.8 386.53,-141.88"/>
</g>
<!-- Node2 -->
<g id="node2" class="node">
<title>Node2</title>
<g id="a_node2"><a xlink:href="class_ogre_1_1_resource_manager.html" target="_top" xlink:title="Defines a generic resource handler.">
<polygon fill="none" stroke="black" points="145.5,-174.5 145.5,-193.5 279.5,-193.5 279.5,-174.5 145.5,-174.5"/>
<text text-anchor="middle" x="212.5" y="-181.5" font-family="Helvetica,sans-Serif" font-size="10.00">Ogre::ResourceManager</text>
</a>
</g>
</g>
<!-- Node2&#45;&gt;Node1 -->
<g id="edge1" class="edge">
<title>Node2&#45;&gt;Node1</title>
<path fill="none" stroke="midnightblue" d="M289.76,-173.89C299.21,-172.64 308.77,-171.37 317.96,-170.16"/>
<polygon fill="midnightblue" stroke="midnightblue" points="289.04,-170.46 279.58,-175.24 289.96,-177.4 289.04,-170.46"/>
</g>
<!-- Node3 -->
<g id="node3" class="node">
<title>Node3</title>
<g id="a_node3"><a xlink:href="class_ogre_1_1_script_loader.html" target="_top" xlink:title="Abstract class defining the interface used by classes which wish to perform script loading to define ...">
<polygon fill="none" stroke="black" points="0,-193.5 0,-212.5 107,-212.5 107,-193.5 0,-193.5"/>
<text text-anchor="middle" x="53.5" y="-200.5" font-family="Helvetica,sans-Serif" font-size="10.00">Ogre::ScriptLoader</text>
</a>
</g>
</g>
<!-- Node3&#45;&gt;Node2 -->
<g id="edge2" class="edge">
<title>Node3&#45;&gt;Node2</title>
<path fill="none" stroke="midnightblue" d="M117.41,-195.39C126.57,-194.28 136.03,-193.13 145.26,-192.02"/>
<polygon fill="midnightblue" stroke="midnightblue" points="116.72,-191.94 107.22,-196.62 117.56,-198.89 116.72,-191.94"/>
</g>
<!-- Node4 -->
<g id="node4" class="node">
<title>Node4</title>
<g id="a_node4"><a xlink:title=" ">
<polygon fill="none" stroke="#bfbfbf" points="10.5,-155.5 10.5,-174.5 96.5,-174.5 96.5,-155.5 10.5,-155.5"/>
<text text-anchor="middle" x="53.5" y="-162.5" font-family="Helvetica,sans-Serif" font-size="10.00">ResourceAlloc</text>
</a>
</g>
</g>
<!-- Node4&#45;&gt;Node2 -->
<g id="edge3" class="edge">
<title>Node4&#45;&gt;Node2</title>
<path fill="none" stroke="midnightblue" d="M106.7,-171.32C119.08,-172.82 132.44,-174.43 145.34,-175.99"/>
<polygon fill="midnightblue" stroke="midnightblue" points="106.92,-167.82 96.57,-170.09 106.08,-174.77 106.92,-167.82"/>
</g>
<!-- Node5 -->
<g id="node5" class="node">
<title>Node5</title>
<g id="a_node5"><a xlink:href="class_ogre_1_1_singleton.html" target="_top" xlink:title=" ">
<polygon fill="none" stroke="black" points="143,-125 143,-155 282,-155 282,-125 143,-125"/>
<text text-anchor="start" x="151" y="-143" font-family="Helvetica,sans-Serif" font-size="10.00">Ogre::Singleton&lt; Texture</text>
<text text-anchor="middle" x="212.5" y="-132" font-family="Helvetica,sans-Serif" font-size="10.00">Manager &gt;</text>
</a>
</g>
</g>
<!-- Node5&#45;&gt;Node1 -->
<g id="edge4" class="edge">
<title>Node5&#45;&gt;Node1</title>
<path fill="none" stroke="midnightblue" d="M292.45,-150.46C301,-151.6 309.61,-152.74 317.91,-153.84"/>
<polygon fill="midnightblue" stroke="midnightblue" points="292.83,-146.98 282.46,-149.14 291.91,-153.92 292.83,-146.98"/>
</g>
</g>
</svg>
